<?xml version="1.0" encoding="UTF-8"?>
<!DOCTYPE svg  PUBLIC '-//W3C//DTD SVG 20010904//EN'  'http://www.w3.org/TR/2001/REC-SVG-20010904/DTD/svg10.dtd'>
<svg version="1.0" viewBox="0 0 512 512" xmlns="http://www.w3.org/2000/svg"><g fill="#e6271d"><path d="m276 493.9c-57.4-6.5-111.4-35.2-144.3-76.7-5.7-7.2-11.7-15.7-11.7-16.6 0-0.3 24.2-0.6 53.8-0.6 58 0 66.7-0.5 91.2-5.6 36.8-7.6 77.1-26.4 105.9-49.3 10.8-8.7 29.8-28.1 38-38.9 24.1-31.8 37.7-68.9 39.4-107.1 0.2-5.4 0.2-5.4 11.8 6 25.3 25 40.1 50.5 47.6 81.9 3.1 13.1 4.3 39.5 2.3 52.9-4.5 31.4-16.8 57.6-40.1 85.4-3.2 3.9-3.2 3.9 17.8 25 11.6 11.7 21.6 22.2 22.2 23.4 3.1 6.1 0.1 15.5-6.1 19.3-3.2 2-5.2 2-111.8 1.9-59.7-0.1-111.9-0.5-116-1z"/><path d="m13.3 367.1c-7.5-1.9-12.3-7.7-12.3-14.9 0-2.4 0.5-5.3 1.1-6.5s10.6-11.7 22.2-23.4c21-21.2 21-21.2 17.1-25.8-22-26-35.1-54.1-39.4-84.6-2-13.5-0.8-39.8 2.4-53.1 15.7-66.6 75.2-119.8 152.6-136.7 16.9-3.7 31.2-5.1 51-5.1 32.2 0 59.3 5 87.3 16.1 61.7 24.5 105 72.4 117.4 130 2.6 12 2.6 45.8 0 57.9-3 13.9-7.4 26.2-14.1 39.4-25.6 50.5-77 87.9-139.6 101.5-25.1 5.4-23.6 5.4-137 5.7-58 0.1-107-0.1-108.7-0.5z"/></g><g fill="#fef3f2"><path d="m105.5 238.4c-4.6-2.4-6.3-4.3-8.1-9-2.9-7.7 0.5-16.1 7.9-19.4 4-1.9 7.3-2 70.7-2 62.7 0 66.7 0.1 70.6 1.9 6 2.7 8.9 7.3 8.9 14.2 0 4.5-0.5 6.2-2.7 9.1-5.4 7.1-2 6.8-77 6.8-59.1 0-67.7-0.2-70.3-1.6z"/><path d="m105.5 174.4c-4.6-2.4-6.3-4.3-8.1-9-2.9-7.7 0.5-16.1 7.9-19.4 4-1.9 7.7-2 102.7-2s98.7 0.1 102.7 2c10.6 4.8 12 19.5 2.5 26.8-3.5 2.7-3.5 2.7-104.1 3-89.8 0.2-100.9 0-103.6-1.4z"/></g></svg>