<?xml version="1.0" encoding="utf-8"?>
<!DOCTYPE svg PUBLIC "-//W3C//DTD SVG 20010904//EN" "http://www.w3.org/TR/2001/REC-SVG-20010904/DTD/svg10.dtd">
<svg version="1.0" xmlns="http://www.w3.org/2000/svg" width="2874px" height="414px" viewBox="0 0 2874 414" preserveAspectRatio="xMidYMid meet">
 <g fill="#e5251b">
  <path d="M249 411 c-36.9 -2.4 -69.6 -13.1 -97.9 -31.8 -15.6 -10.3 -35.2 -29.4 -43.3 -42.2 l-3.8 -6 45.2 0 c39.6 0 47.2 -0.3 60.7 -2 60.2 -7.9 112.7 -38.2 145.4 -84 8.2 -11.5 18.7 -33.1 23 -47 4.8 -15.6 4.8 -15.7 6.1 -30.5 l1.1 -12.9 10.1 9.9 c21.5 21.3 37.1 50.2 41 75.9 4.2 28.1 -0.5 57.6 -12.9 80.5 -5 9.3 -14.4 23.4 -19.9 29.6 l-4.1 4.6 18.8 18.9 c17.8 17.8 18.7 19 19.2 23.2 0.6 5.6 -1.5 10.1 -6 12.5 -3 1.7 -8.9 1.8 -87.2 1.9 -46.2 0.1 -89.2 -0.2 -95.5 -0.6z"/>
  <path d="M1537 336.4 c-23.9 -6.3 -73.9 -19.3 -111 -29 -37.1 -9.6 -67.6 -17.6 -67.7 -17.8 -0.4 -0.3 56.4 -219.4 57.5 -221.7 0.6 -1.5 5.6 -0.4 42.7 9.3 23.1 6 73 18.9 110.8 28.8 37.9 9.8 69.1 18.1 69.5 18.4 0.6 0.7 -57 223.7 -57.8 223.5 -0.3 -0.1 -20.1 -5.3 -44 -11.5z m-16.2 -123.1 c2.9 -11.1 5.2 -20.8 5.2 -21.6 0 -1 -6.1 -3 -20.7 -6.7 -11.5 -2.9 -21.3 -5.5 -21.9 -5.7 -0.9 -0.3 -13.1 43.5 -12.2 44.1 1.2 0.9 43.4 11.2 43.9 10.7 0.3 -0.3 2.9 -9.7 5.7 -20.8z"/>
  <path d="M945.5 339.8 c-39.5 -2.6 -76.4 -24.8 -99.8 -60.1 -14 -21.1 -20.9 -45.2 -20.9 -73.2 0 -27.9 6.4 -51.1 19.8 -71.7 20.9 -32.5 52.7 -53.9 89.2 -60.3 11.6 -2.1 36 -2 47.7 0 47.3 8.2 88.6 44 102.8 89.1 5.1 16 6.1 23.6 6.1 42.9 0 19.6 -1.8 31.1 -7 45.7 -6.7 18.8 -19.8 38.4 -35.1 52.8 -28.2 26.3 -61.3 37.6 -102.8 34.8z m24.6 -116.6 c8.7 -4.5 13.9 -13.7 13.9 -24.7 0 -11 -5.2 -20.2 -13.9 -24.7 -6.6 -3.5 -17.1 -3.9 -23.6 -0.9 -15.7 7.1 -20.1 31.2 -8.2 44.8 5.5 6.1 10.4 8.3 19.3 8.3 5.9 0 8.1 -0.5 12.5 -2.8z"/>
  <path d="M2094 340 c-30.9 -2.3 -62.2 -16.4 -83.6 -37.5 -19.3 -19.1 -28.4 -40.9 -33.5 -80.5 -0.6 -5 -1.3 -36.6 -1.6 -77.2 l-0.5 -68.8 57.5 0 57.6 0 0.3 69.3 c0.3 65.1 0.4 69.5 2.2 73.5 2.3 5.2 5.7 7.2 12.6 7.2 4.3 0 5.6 -0.5 8 -2.8 5.4 -5.4 5.4 -5.3 5.7 -78.9 l0.4 -68.3 57.5 0 57.6 0 -0.5 71.8 c-0.4 77.4 -0.5 79.8 -6.2 100.8 -6.1 23.1 -14.3 38.1 -28.5 52.4 -21.9 22 -51.7 36.4 -80 38.5 -4.1 0.3 -9.3 0.7 -11.5 0.9 -2.2 0.1 -8.3 -0.1 -13.5 -0.4z"/>
  <path d="M2727.5 339.9 c-20 -0.8 -37 -2.8 -55 -6.4 -18.1 -3.7 -43.1 -11.3 -42.9 -13.1 0.3 -1.7 26.6 -82.9 27.1 -83.4 0.2 -0.2 1.6 1.1 3.1 3 5.1 6.8 15.8 17.3 21.9 21.6 7 5.1 20.6 11.6 27.5 13.3 2.6 0.6 8.2 1.1 12.5 1.1 6.2 0 8.6 -0.5 11.8 -2.3 5.8 -3.3 8.8 -8.2 8.2 -13.4 -1 -9.1 -7.1 -13.7 -32.9 -24.7 -36.3 -15.4 -46.7 -22.2 -57.5 -37.3 -8.8 -12.4 -11.9 -24.8 -11 -43.9 0.7 -14.3 2.5 -22.1 8 -33.4 7.9 -16.2 25.2 -30.6 45.6 -38 20.1 -7.3 39.6 -10.1 70.6 -10.1 24.9 0 42.3 1.6 64.5 6.1 18.3 3.7 38.6 10.1 38.2 12.1 -0.1 0.8 -6.4 19 -13.9 40.6 l-13.5 39.2 -3.8 -4.7 c-4.9 -6.1 -15.3 -16 -21 -19.9 -12.4 -8.4 -24.8 -12.3 -39 -12.3 -15.2 0.1 -21.2 4.2 -21.4 14.7 -0.2 8.3 6.5 12.7 40 26.3 46.8 19.1 60.4 28.1 69.9 46.2 5.5 10.3 7.7 20.2 7.7 34.3 0.1 25.5 -8.6 45 -26.5 59.5 -16.7 13.6 -45.9 23 -76.1 24.5 -21 1.1 -24.6 1.1 -42.1 0.4z"/>
  <path d="M528 206.5 l0 -130.5 83.3 0 c45.7 0 89.3 0.5 96.8 1 21.7 1.6 38 6.6 51.6 15.8 8.5 5.7 20.3 18.7 24.6 27 6.6 12.5 9.6 28.8 7.8 42.7 -2.4 19.3 -10 33.2 -24.9 45.7 l-4.4 3.7 5.5 6.8 c13.7 17 25.6 39.4 33.2 62.6 4.4 13.6 9.7 37.2 11.1 49.5 l0.7 6.2 -59.5 0 -59.5 0 -0.7 -9.7 c-2.7 -38.7 -12.5 -68.9 -25.7 -79.4 -5.5 -4.4 -14.4 -7.8 -20.1 -7.9 l-4.8 0 0 48.5 0 48.5 -57.5 0 -57.5 0 0 -130.5z m133.6 -28 c7.1 -2.1 12.9 -7.3 14.9 -13.6 3.1 -9.1 0.7 -21.4 -5.3 -28.3 -3.6 -4.1 -11.2 -6.6 -19.9 -6.6 l-8.3 0 0 25 0 25 6.8 0 c3.8 0 9.1 -0.7 11.8 -1.5z"/>
  <path d="M1133 206.5 l0 -130.5 107 0 107 0 0 32.5 0 32.5 -49.5 0 -49.5 0 0 24 0 24 36.5 0 36.5 0 0 32.5 0 32.5 -36.5 0 -36.5 0 0 41.5 0 41.5 -57.5 0 -57.5 0 0 -130.5z"/>
  <path d="M1673 206.5 l0 -130.5 83.3 0 c45.7 0 89.3 0.5 96.8 1 21.7 1.6 38 6.6 51.6 15.8 8.5 5.7 20.3 18.7 24.6 27 6.6 12.5 9.6 28.8 7.8 42.7 -2.4 19.3 -10 33.2 -24.9 45.7 l-4.4 3.7 5.5 6.8 c13.7 17 25.6 39.4 33.2 62.6 4.4 13.6 9.7 37.2 11.1 49.5 l0.7 6.2 -59.5 0 -59.5 0 -0.7 -9.7 c-2.7 -38.7 -12.5 -68.9 -25.7 -79.4 -5.5 -4.4 -14.4 -7.8 -20.1 -7.9 l-4.8 0 0 48.5 0 48.5 -57.5 0 -57.5 0 0 -130.5z m133.6 -28 c7.1 -2.1 12.9 -7.3 14.9 -13.6 3.1 -9.1 0.7 -21.4 -5.3 -28.3 -3.6 -4.1 -11.2 -6.6 -19.9 -6.6 l-8.3 0 0 25 0 25 6.8 0 c3.8 0 9.1 -0.7 11.8 -1.5z"/>
  <path d="M2282 206.5 l0 -130.5 55.3 0 55.2 0 23.9 27.6 24 27.7 2.4 -2.9 c1.4 -1.6 12.2 -14 24 -27.6 l21.5 -24.8 55.4 0 55.3 0 0 130.5 0 130.5 -57 0 -57 0 0 -65.5 c0 -36.2 -0.4 -65.5 -0.9 -65.5 -0.4 0 -10.4 11 -22.1 24.5 -11.7 13.5 -21.5 24.5 -21.9 24.4 -0.3 0 -10 -11 -21.6 -24.4 -11.5 -13.5 -21.3 -24.5 -21.7 -24.5 -0.5 0 -0.8 29.5 -0.8 65.5 l0 65.5 -57 0 -57 0 0 -130.5z"/>
  <path d="M10.4 300.9 c-4.8 -1.4 -9.4 -7.2 -9.4 -11.7 0 -4.9 1.3 -6.6 19 -24.2 8 -8 15.6 -15.7 16.9 -17.2 l2.3 -2.6 -5.5 -6.9 c-13.3 -16.5 -22.8 -34.5 -27.6 -52 -4.6 -16.8 -5.4 -22.9 -4.8 -39.2 0.4 -12 1 -16.7 3.6 -26.4 1.7 -6.5 4.2 -14 5.5 -16.5 1.3 -2.6 2.6 -5.7 3 -6.8 1.6 -5.1 10.1 -18.6 19.4 -30.8 8.9 -11.7 31.7 -30.8 46.7 -39.2 28.8 -16.1 65.1 -25.4 98.9 -25.4 28.4 0 58.5 6.4 84.6 18.1 17.5 7.8 35.2 19.9 49 33.4 14.5 14.3 21.4 23.7 30 41.2 9.8 19.9 14 36.9 14 56.8 0 27.5 -8.5 52.5 -26.8 79.2 -8.2 12 -31 32.8 -46.2 42.2 -20.1 12.4 -53.1 24 -77.5 27.2 -11.5 1.5 -190.5 2.3 -195.1 0.8z"/>
 </g>
 <g fill="#fef3f2">
  <path d="M90.1 191.2 c-5 -2.5 -7.3 -6.1 -7.3 -11.6 -0.1 -5.1 1.7 -8.4 6.6 -12 2.7 -2.1 3.7 -2.1 61.4 -2.1 56.7 0 58.8 0.1 62 2 6.9 4.1 8.9 13.8 4.1 19.9 -4.5 5.7 -2.8 5.6 -65.6 5.6 -53.1 0 -58.1 -0.1 -61.2 -1.8z"/>
  <path d="M90.5 136.6 c-4.1 -1.8 -6.5 -4.8 -7.5 -9.1 -1.1 -5.1 0.5 -9.8 4.6 -13.4 l3.5 -3.1 87.4 0 87.4 0 3.6 3.1 c7.6 6.7 6.3 17.8 -2.7 22.5 -3.9 2 -171.7 2 -176.3 0z"/>
 </g>
</svg>